# xmcd
#
# Track frame offsets:
#	150
#	16012
#	37452
#	52507
#	74927
#	97902
#	116880
#	136205
#	153390
#	169965
#	188077
#	209442
#	217592
#
# Disc length: 3166 seconds
#
# Revision: 0
# Processed by: cddbd v1.4PL0 Copyright (c) Steve Scherf et al.
# Submitted via: dBpowerAMP V4.0
#
DISCID=b50c5c0d
DTITLE=Jim Campilongo Electric Trio - American Hips
DYEAR=2003
DGENRE=Blues
TTITLE0=American Hips
TTITLE1=Watchin' You Drown in a Mud Puddle
TTITLE2=Sweet Dreams
TTITLE3=Cat Under a Car
TTITLE4=Bought some Swampland in Florida
TTITLE5=Jim's Blues
TTITLE6=Stella
TTITLE7=Roy Buchanan's Cousin
TTITLE8=Between Your Toes
TTITLE9=Freaky Dreiky
TTITLE10=Michelle
TTITLE11=Like, Hello?
TTITLE12=Ain't She Sweet
EXTD=
EXTT0=
EXTT1=
EXTT2=
EXTT3=
EXTT4=
EXTT5=
EXTT6=
EXTT7=
EXTT8=
EXTT9=
EXTT10=
EXTT11=
EXTT12=
PLAYORDER=
